<svg width="29" height="22" fill="none" xmlns="http://www.w3.org/2000/svg"><path d="M23.826 2.647a21.94 21.94 0 00-5.502-1.72.083.083 0 00-.088.043c-.236.431-.497.994-.679 1.437a20.149 20.149 0 00-6.173.021c-.185-.45-.46-1.002-.7-1.431a.086.086 0 00-.088-.043 21.88 21.88 0 00-5.49 1.76.08.08 0 00-.036.03C1.59 8.095.648 13.303 1.137 18.442a.094.094 0 00.035.064 22.22 22.22 0 006.755 3.454.086.086 0 00.094-.032c.517-.726.977-1.49 1.371-2.295a.088.088 0 00-.047-.12 14.609 14.609 0 01-2.11-1.018.09.09 0 01-.009-.146c.141-.109.283-.222.417-.336A.082.082 0 017.731 18c4.426 2.043 9.21 2.026 13.569-.049a.082.082 0 01.088.011c.136.113.277.227.42.334a.09.09 0 01-.006.147c-.672.403-1.37.745-2.104 1.03a.089.089 0 00-.045.123c.408.8.874 1.561 1.386 2.283.021.03.06.044.095.033a22.145 22.145 0 006.74-3.502.088.088 0 00.035-.063c.542-5.945-.982-11.102-4.047-15.668a.07.07 0 00-.036-.032zm-13.79 12.632c-1.33.005-2.43-1.238-2.436-2.768-.005-1.53 1.066-2.78 2.417-2.786 1.362-.004 2.452 1.249 2.436 2.769.006 1.53-1.065 2.78-2.416 2.785zm8.972-.032c-1.33.005-2.43-1.238-2.436-2.768-.005-1.53 1.065-2.78 2.417-2.785 1.362-.005 2.452 1.248 2.436 2.768.005 1.53-1.054 2.78-2.417 2.785z" fill="#fff"/></svg>