<svg width="80" height="80" viewBox="0 0 80 80" fill="none" xmlns="http://www.w3.org/2000/svg">
<circle cx="40.0599" cy="39.9398" r="39.6898" stroke="white" stroke-width="0.5"/>
<path d="M54.8365 17.5872C53.1868 17.9389 52.0479 18.5586 50.8588 19.756C50.1387 20.4762 49.9544 20.7191 49.6195 21.3973C49.1338 22.3855 49.0166 22.846 48.8491 24.5376C48.5058 27.9709 47.9028 30.6757 47.1408 32.1914C46.8393 32.7776 46.8142 33.1376 47.0487 33.3721C47.2832 33.6066 47.6432 33.5815 48.2043 33.2967C49.7284 32.5347 52.5085 31.915 55.967 31.5717C56.7039 31.4963 57.5664 31.3624 57.893 31.2702C60.3549 30.5417 62.2809 28.331 62.8336 25.5927C63.0262 24.6632 62.9676 23.1308 62.708 22.2347C62.3647 21.0289 61.544 19.7644 60.6145 18.994C59.9781 18.4665 58.7722 17.8552 58.0186 17.6709C57.2482 17.4783 55.5231 17.4365 54.8365 17.5872Z" fill="white"/>
<path d="M23.1826 19.2789C22.5378 19.3291 21.9349 19.505 21.2315 19.865C20.6704 20.1581 20.3857 20.3675 20.0005 20.7946C18.5769 22.3437 18.2755 24.5126 19.2217 26.4219C19.5567 27.1169 19.1129 26.6312 25.7367 33.4141C32.7122 40.5487 32.1679 39.9626 32.5531 40.7497C33.9599 43.6304 32.6033 47.5326 29.6557 49.0567C28.274 49.7685 28.006 49.8187 25.318 49.8271C22.6634 49.8271 22.5211 49.8522 21.2566 50.5054C19.6739 51.3176 18.4932 52.8333 18.0745 54.5751C17.7647 55.8815 17.907 57.4725 18.443 58.6867C19.1631 60.328 20.7542 61.6762 22.5629 62.1954C23.4087 62.4383 24.9412 62.4466 25.7785 62.2205C27.8553 61.6595 29.5301 60.1187 30.1665 58.1676C30.5266 57.0957 30.5852 56.4341 30.468 55.0943C30.3005 53.2855 30.4931 52.1383 31.1798 50.7398C32.7624 47.5242 37.2844 46.1509 40.0896 48.0434C40.3157 48.1942 42.7023 50.4719 45.3904 53.0929C53.3707 60.8975 53.1279 60.6797 53.7978 61.0231C55.7322 62.0363 58.0685 61.7097 59.5759 60.2108C61.192 58.603 61.4851 56.208 60.3044 54.3072C60.1285 54.0308 59.1823 53.0176 57.8927 51.7531C50.2724 44.25 48.5641 42.5836 48.472 42.5836C48.2459 42.5836 48.0533 42.7678 48.0533 42.9939C48.0533 43.1195 48.4887 44.451 49.0247 45.9416C49.8621 48.2695 50.0044 48.7468 50.0379 49.3079C50.0798 49.9025 50.0714 49.9778 49.8621 50.2877C48.9577 51.6526 46.8977 50.899 44.3101 48.2695C42.8447 46.7706 42.1999 45.9164 40.8935 43.7225C39.3862 41.1852 39.1015 40.9004 36.4805 39.3345C34.5461 38.1789 33.0806 37.0819 31.9418 35.9263C29.9739 33.9249 29.0611 32.292 29.3626 31.2871C29.5887 30.5335 30.3089 30.1148 31.1714 30.232C31.4059 30.2655 32.394 30.5753 33.357 30.9187C37.3011 32.3255 37.4184 32.359 37.6026 32.0827C37.8036 31.7896 37.9459 31.9487 28.4582 22.3186C26.7248 20.5601 26.2224 20.0995 25.7786 19.865C24.9495 19.4128 24.0703 19.2202 23.1826 19.2789Z" fill="white"/>
<path d="M42.1331 34.5784C41.2706 34.8547 40.6342 35.4325 40.249 36.2699C40.0983 36.5965 40.0564 36.831 40.0564 37.392C40.0564 38.0284 40.0815 38.1708 40.3327 38.6649C40.6509 39.3097 41.1031 39.7535 41.7647 40.0633C42.175 40.2559 42.3425 40.281 43.071 40.281C43.8665 40.281 43.9335 40.2643 44.436 39.9963C45.064 39.653 45.4827 39.2092 45.7842 38.5727C45.9684 38.1792 46.0019 37.9866 46.0019 37.392C46.0019 36.7975 45.9684 36.6049 45.7842 36.2113C45.4744 35.5497 45.0305 35.0976 44.3941 34.7793C43.9419 34.5616 43.7326 34.5114 43.1715 34.4863C42.7444 34.4695 42.3509 34.503 42.1331 34.5784Z" fill="white"/>
</svg>
