<svg width="313" height="22" viewBox="0 0 313 22" fill="none" xmlns="http://www.w3.org/2000/svg">
<path d="M309.509 4.0528C309.512 4.05526 309.514 4.05772 309.517 4.06018L309.509 4.0528ZM296.171 18.1117C296.169 18.109 296.166 18.1063 296.163 18.1036L296.171 18.1117ZM295.81 17.7523L295.822 17.7645C295.818 17.7604 295.814 17.7563 295.81 17.7523ZM2.88828 16.5856L2.89079 16.5882C1.38057 14.9884 0.409144 12.8745 0.266648 10.5367C0.409099 12.8732 1.37971 14.9863 2.88828 16.5856ZM283.645 10.4416L273.011 10.4416V9.45972L283.645 9.45973V10.4416ZM238.249 10.4599C238.249 8.1118 240.152 6.20832 242.5 6.20832C244.848 6.20832 246.752 8.1118 246.752 10.4599C246.752 12.8079 244.848 14.7114 242.5 14.7114C240.152 14.7114 238.249 12.8079 238.249 10.4599ZM254.249 10.4599C254.249 8.1118 256.152 6.20832 258.5 6.20832C260.848 6.20832 262.752 8.1118 262.752 10.4599C262.752 12.8079 260.848 14.7114 258.5 14.7114C256.152 14.7114 254.249 12.8079 254.249 10.4599ZM30.1118 10.5584L40.7455 10.5584V11.5403L30.1118 11.5403V10.5584ZM74.5085 10.5402C74.5085 12.8882 72.605 14.7917 70.2569 14.7917C67.9089 14.7917 66.0054 12.8882 66.0054 10.5402C66.0054 8.1921 67.9089 6.28861 70.2569 6.28861C72.605 6.28862 74.5085 8.1921 74.5085 10.5402ZM58.5085 10.5402C58.5085 12.8882 56.605 14.7917 54.2569 14.7917C51.9089 14.7917 50.0054 12.8882 50.0054 10.5402C50.0054 8.1921 51.9089 6.28861 54.2569 6.28861C56.605 6.28862 58.5085 8.1921 58.5085 10.5402ZM166.752 11C166.752 16.9379 161.938 21.7515 156 21.7515C150.062 21.7515 145.248 16.9379 145.248 11C145.248 5.06208 150.062 0.248451 156 0.248451C161.938 0.248451 166.752 5.06208 166.752 11ZM162.752 11C162.752 14.7288 159.729 17.7515 156 17.7515C152.271 17.7515 149.248 14.7288 149.248 11C149.248 7.27122 152.271 4.24845 156 4.24845C159.729 4.24845 162.752 7.27122 162.752 11ZM156 18.2485C160.003 18.2485 163.248 15.0032 163.248 11C163.248 6.99679 160.003 3.75155 156 3.75155C151.997 3.75155 148.752 6.99679 148.752 11C148.752 15.0032 151.997 18.2485 156 18.2485Z" stroke="white" stroke-width="0.496902"/>
</svg>
