<svg width="127" height="13" viewBox="0 0 127 13" fill="none" xmlns="http://www.w3.org/2000/svg">
<path d="M127 12.5C123.473 12.5 123.473 10.8374 119.945 10.8374C116.417 10.8374 116.417 12.5 112.89 12.5C109.362 12.5 109.362 0.5 105.834 0.5C102.306 0.5 102.306 12.5 98.7782 12.5C95.2501 12.5 95.2507 5.7092 91.7227 5.7092C88.1947 5.7092 88.1953 12.5 84.6673 12.5C81.1392 12.5 81.1398 0.5 77.6118 0.5C74.0838 0.5 74.0844 12.5 70.5563 12.5C67.0283 12.5 67.0283 8.20646 63.5009 8.20646C59.9734 8.20646 59.9729 12.5 56.4454 12.5C52.918 12.5 52.9174 10.5285 49.39 10.5285C45.8625 10.5285 45.8619 12.5 42.3345 12.5C38.8071 12.5 38.8065 3.91292 35.2791 3.91292C31.7516 3.91292 31.751 12.5 28.223 12.5C24.695 12.5 24.6956 0.5 21.1675 0.5C17.6395 0.5 17.6395 12.5 14.1121 12.5C10.5847 12.5 10.5841 2.11664 7.05605 2.11664C3.52802 2.11664 3.52802 12.5 0 12.5" fill="white"/>
</svg>
