<?xml version="1.0" encoding="utf-8"?><svg xmlns="http://www.w3.org/2000/svg" xmlns:xlink="http://www.w3.org/1999/xlink"><symbol fill="none" viewBox="0 0 29 22" id="discord" xmlns="http://www.w3.org/2000/svg"><path d="M23.826 2.647a21.94 21.94 0 00-5.502-1.72.083.083 0 00-.088.043c-.236.431-.497.994-.679 1.437a20.149 20.149 0 00-6.173.021c-.185-.45-.46-1.002-.7-1.431a.086.086 0 00-.088-.043 21.88 21.88 0 00-5.49 1.76.08.08 0 00-.036.03C1.59 8.095.648 13.303 1.137 18.442a.094.094 0 00.035.064 22.22 22.22 0 006.755 3.454.086.086 0 00.094-.032c.517-.726.977-1.49 1.371-2.295a.088.088 0 00-.047-.12 14.609 14.609 0 01-2.11-1.018.09.09 0 01-.009-.146c.141-.109.283-.222.417-.336A.082.082 0 017.731 18c4.426 2.043 9.21 2.026 13.569-.049a.082.082 0 01.088.011c.136.113.277.227.42.334a.09.09 0 01-.006.147c-.672.403-1.37.745-2.104 1.03a.089.089 0 00-.045.123c.408.8.874 1.561 1.386 2.283.021.03.06.044.095.033a22.145 22.145 0 006.74-3.502.088.088 0 00.035-.063c.542-5.945-.982-11.102-4.047-15.668a.07.07 0 00-.036-.032zm-13.79 12.632c-1.33.005-2.43-1.238-2.436-2.768-.005-1.53 1.066-2.78 2.417-2.786 1.362-.004 2.452 1.249 2.436 2.769.006 1.53-1.065 2.78-2.416 2.785zm8.972-.032c-1.33.005-2.43-1.238-2.436-2.768-.005-1.53 1.065-2.78 2.417-2.785 1.362-.005 2.452 1.248 2.436 2.768.005 1.53-1.054 2.78-2.417 2.785z" fill="#fff"/></symbol><symbol fill="none" viewBox="0 0 80 80" id="drop" xmlns="http://www.w3.org/2000/svg"><circle cx="40.06" cy="39.94" r="39.69" stroke="#fff" stroke-width=".5"/><path d="M54.837 17.587c-1.65.352-2.79.972-3.978 2.169-.72.72-.905.963-1.24 1.641-.485.989-.602 1.449-.77 3.14-.343 3.434-.946 6.139-1.708 7.654-.302.587-.327.947-.092 1.181.234.235.594.21 1.155-.075 1.524-.762 4.304-1.382 7.763-1.725.737-.076 1.6-.21 1.926-.302 2.462-.728 4.388-2.939 4.94-5.677.193-.93.135-2.462-.125-3.358-.343-1.206-1.164-2.47-2.093-3.241-.637-.527-1.843-1.139-2.596-1.323-.77-.193-2.496-.235-3.182-.084zM23.183 19.279c-.645.05-1.248.226-1.951.586-.562.293-.846.503-1.232.93-1.423 1.549-1.724 3.718-.778 5.627.335.695-.11.21 6.515 6.992 6.975 7.135 6.43 6.549 6.816 7.336 1.407 2.88.05 6.783-2.897 8.307-1.382.712-1.65.762-4.338.77-2.655 0-2.797.025-4.061.678-1.583.813-2.764 2.328-3.183 4.07-.31 1.306-.167 2.897.369 4.112.72 1.641 2.311 2.99 4.12 3.508.846.243 2.378.252 3.216.026 2.076-.561 3.751-2.102 4.387-4.053.36-1.072.42-1.734.302-3.074-.168-1.809.025-2.956.712-4.354 1.582-3.216 6.104-4.59 8.91-2.697.226.151 2.612 2.429 5.3 5.05 7.98 7.804 7.738 7.587 8.408 7.93 1.934 1.013 4.27.687 5.778-.812 1.616-1.608 1.91-4.003.728-5.904-.175-.276-1.122-1.29-2.411-2.554-7.62-7.503-9.329-9.17-9.421-9.17a.418.418 0 00-.419.41c0 .127.436 1.458.972 2.949.837 2.328.98 2.805 1.013 3.366.042.595.033.67-.176.98-.904 1.365-2.964.611-5.552-2.018-1.465-1.5-2.11-2.354-3.416-4.548-1.508-2.537-1.792-2.822-4.413-4.388-1.935-1.155-3.4-2.252-4.54-3.408-1.967-2.001-2.88-3.634-2.578-4.639.226-.753.946-1.172 1.808-1.055.235.034 1.223.343 2.186.687 3.944 1.406 4.061 1.44 4.246 1.164.2-.293.343-.134-9.145-9.764-1.733-1.759-2.236-2.22-2.68-2.454a4.713 4.713 0 00-2.595-.586z" fill="#fff"/><path d="M42.133 34.578c-.862.277-1.499.854-1.884 1.692-.15.326-.193.561-.193 1.122 0 .636.026.779.277 1.273.318.645.77 1.089 1.432 1.398.41.193.578.218 1.306.218.796 0 .863-.017 1.365-.285a3.003 3.003 0 001.348-1.423c.184-.394.218-.586.218-1.181 0-.595-.034-.787-.218-1.18a2.893 2.893 0 00-1.39-1.433c-.452-.217-.661-.268-1.222-.293-.428-.017-.821.017-1.039.092z" fill="#fff"/></symbol><symbol fill="none" viewBox="0 0 313 22" id="pagination" xmlns="http://www.w3.org/2000/svg"><path d="M309.509 4.053l.008.007-.008-.007zm-13.338 14.059l-.008-.008.008.008zm-.361-.36l.012.013-.012-.013zM2.888 16.586l.003.002a9.654 9.654 0 01-.003-.002zm280.757-6.144h-10.634V9.46h10.634v.982zm-45.396.018a4.251 4.251 0 118.502-.001 4.251 4.251 0 01-8.502 0zm16 0a4.251 4.251 0 118.502-.001 4.251 4.251 0 01-8.502 0zm-224.137.098h10.634v.982H30.111v-.982zm44.397-.018a4.252 4.252 0 11-8.504 0 4.252 4.252 0 018.504 0zm-16 0a4.252 4.252 0 11-8.504 0 4.252 4.252 0 018.503 0zm108.243.46c0 5.938-4.814 10.752-10.752 10.752-5.938 0-10.752-4.814-10.752-10.752 0-5.938 4.814-10.752 10.752-10.752 5.938 0 10.752 4.814 10.752 10.752zm-4 0a6.752 6.752 0 11-13.503 0 6.752 6.752 0 0113.503 0zM156 18.248a7.248 7.248 0 100-14.496 7.248 7.248 0 000 14.497z" stroke="#fff" stroke-width=".497"/></symbol><symbol fill="none" viewBox="0 0 127 13" id="waves" xmlns="http://www.w3.org/2000/svg"><path d="M127 12.5c-3.527 0-3.527-1.663-7.055-1.663-3.528 0-3.528 1.663-7.055 1.663-3.528 0-3.528-12-7.056-12s-3.528 12-7.056 12-3.527-6.79-7.055-6.79c-3.528 0-3.528 6.79-7.056 6.79S81.14.5 77.612.5c-3.528 0-3.528 12-7.056 12s-3.528-4.294-7.055-4.294c-3.528 0-3.528 4.294-7.056 4.294-3.527 0-3.528-1.972-7.055-1.972-3.528 0-3.528 1.972-7.056 1.972-3.527 0-3.528-8.587-7.055-8.587-3.527 0-3.528 8.587-7.056 8.587S24.696.5 21.168.5c-3.528 0-3.528 12-7.056 12-3.527 0-3.528-10.383-7.056-10.383S3.528 12.5 0 12.5" fill="#fff"/></symbol></svg>